:SAMPLES-PER-SECOND 30
:FULLY-SPECIFIED
:DEGREES
69
root  -61.6396 35.7701 -18.7825 41.2262 -4.58284 0.7883
RightUpLeg  -87.1634 -23.2215 34.0448
RightLeg  47.5899 -2.09262 -2.80035
RightFoot  -11.1636 -0.0558158 -12.3415
RightToes  0.00048216 0.542163 -0.142577
Spine  67.3644 -6.03293 8.90072
Spine1  3.99877 0.708167 -5.6118
HEad  -45.4759 -3.48815 2.48996
LeftShoulder1  8.80745 -25.613 -23.8233
LeftArm  -60.344 -71.0202 -3.38049
LeftForeArm  -2.17631 -15.7414 -1.9555
LeftHand  -0.25398 0.0180481 5.50724
RightShoulder  2.44905 12.4413 7.86157
RightArm  -60.5966 62.2085 -7.46212
RightForeArm  -15.488 20.4012 5.31569
RightHand  -0.491883 9.53096 -4.32723
LeftUpLeg  -95.5236 33.7868 -42.8038
LeftLeg  41.5301 -6.38297 -5.638
LeftFoot  -3.03051 -0.0541265 1.01309
LeftToes  1.06248e-005 4.65856e-005 -8.18499e-006
70
root  -61.6931 35.8755 -18.8766 41.0123 -4.49132 0.974518
RightUpLeg  -86.8341 -23.5075 34.3185
RightLeg  46.7856 -1.9937 -2.61198
RightFoot  -11.0454 -0.0411987 -12.7211
RightToes  0.00048216 0.542163 -0.142577
Spine  66.7321 -5.79844 8.9361
Spine1  4.40002 0.867454 -5.39022
HEad  -45.9158 -3.25073 1.66082
LeftShoulder1  9.1994 -25.8934 -24.9077
LeftArm  -60.2206 -70.7245 -3.7143
LeftForeArm  -0.351 -16.5039 -2.21222
LeftHand  -0.25398 0.0180481 5.50724
RightShoulder  2.52554 12.6414 8.17718
RightArm  -60.4656 61.2775 -7.3998
RightForeArm  -13.1441 20.9287 5.25476
RightHand  -0.264102 8.91732 -2.64211
LeftUpLeg  -95.3128 34.1442 -43.6319
LeftLeg  40.5905 -7.23179 -6.21676
LeftFoot  -2.65339 0.00182113 0.18317
LeftToes  1.06248e-005 4.65856e-005 -8.18499e-006
71
root  -61.6841 36.0318 -18.9704 40.7184 -4.38647 1.02129
RightUpLeg  -86.2861 -23.9361 34.6932
RightLeg  45.6384 -1.80108 -2.30285
RightFoot  -10.6008 0.011951 -12.824
RightToes  0.00048216 0.542163 -0.142577
Spine  66.3018 -5.71752 9.172
Spine1  4.25423 1.09078 -5.46137
HEad  -45.8601 -2.82693 0.456461
LeftShoulder1  9.60835 -26.6511 -25.4824
LeftArm  -59.3353 -69.3211 -4.34101
LeftForeArm  1.92921 -17.864 -2.75497
LeftHand  -0.25398 0.0180481 5.50724
RightShoulder  2.63574 12.824 8.73375
RightArm  -59.083 60.2508 -6.60521
RightForeArm  -11.7225 21.7621 5.30613
RightHand  -0.133872 8.42336 -1.61109
LeftUpLeg  -94.9118 34.4239 -44.4381
LeftLeg  39.3331 -7.89338 -6.51073
LeftFoot  -1.86715 -0.0407206 0.619447
LeftToes  1.06248e-005 4.65856e-005 -8.18499e-006
72
root  -61.6196 36.2487 -19.0619 40.3729 -4.17999 1.00774
RightUpLeg  -85.5958 -24.6497 35.3006
RightLeg  44.0109 -1.3614 -1.72836
RightFoot  -9.73612 0.115469 -12.8364
RightToes  0.00048216 0.542163 -0.142577
Spine  65.6375 -5.9018 9.47864
Spine1  4.12853 1.09965 -5.72158
HEad  -45.6873 -2.46725 0.015943
LeftShoulder1  9.90289 -27.1991 -25.8724
LeftArm  -58.1323 -67.4869 -5.29633
LeftForeArm  3.74686 -19.6253 -3.4654
LeftHand  -0.25398 0.0180481 5.50724
RightShoulder  2.81682 13.4242 9.28614
RightArm  -57.0558 58.8515 -4.87668
RightForeArm  -10.7101 23.5081 5.56098
RightHand  0.0112699 7.79934 -0.370847
LeftUpLeg  -94.0582 34.5684 -44.9018
LeftLeg  37.6574 -8.42004 -6.5518
LeftFoot  -0.745336 -0.107216 1.20992
LeftToes  1.06248e-005 4.65856e-005 -8.18499e-006
73
root  -61.5126 36.5377 -19.1447 39.8737 -3.99437 0.96994
RightUpLeg  -84.5803 -25.5961 35.9506
RightLeg  41.8894 -0.665375 -0.943855
RightFoot  -8.57676 0.257368 -12.9783
RightToes  0.00048216 0.542163 -0.142577
Spine  64.6712 -5.9826 9.7309
Spine1  4.29368 1.06695 -5.68493
HEad  -45.2759 -2.57906 0.203047
LeftShoulder1  10.0974 -27.2053 -26.5212
LeftArm  -55.9699 -66.0745 -8.07141
LeftForeArm  5.10305 -21.7021 -4.20578
LeftHand  -0.25398 0.0180481 5.50724
RightShoulder  3.03052 13.941 10.0998
RightArm  -55.007 57.5478 -3.02546
RightForeArm  -9.65029 25.9343 6.05259
RightHand  0.164896 6.90478 1.10534
LeftUpLeg  -92.5869 34.8223 -44.9806
LeftLeg  35.5065 -9.04115 -6.51615
LeftFoot  0.4419 -0.130168 1.23962
LeftToes  1.06248e-005 4.65856e-005 -8.18499e-006
74
root  -61.3737 36.8968 -19.2185 39.0458 -3.97708 0.858994
RightUpLeg  -82.8633 -26.6108 36.2372
RightLeg  39.3041 0.00788667 -0.278844
RightFoot  -7.22581 0.419516 -12.967
RightToes  0.00048216 0.542163 -0.142577
Spine  63.5372 -5.77132 9.85705
Spine1  4.81158 1.17017 -5.31044
HEad  -44.4261 -2.97449 -0.309577
LeftShoulder1  10.2816 -27.008 -27.3671
LeftArm  -52.419 -64.791 -12.3553
LeftForeArm  5.48382 -24.0438 -4.87075
LeftHand  -0.25398 0.0180481 5.50724
RightShoulder  3.28271 14.0411 11.5848
RightArm  -53.3638 57.1241 -1.97985
RightForeArm  -9.00902 28.0701 6.53094
RightHand  0.260948 5.70021 2.31456
LeftUpLeg  -90.6613 35.4713 -45.0429
LeftLeg  32.9117 -9.8056 -6.42717
LeftFoot  1.69946 -0.1744 1.42976
LeftToes  1.06248e-005 4.65856e-005 -8.18499e-006
75
root  -61.2101 37.3062 -19.2899 37.8088 -4.06062 0.700058
RightUpLeg  -80.3679 -27.7183 36.008
RightLeg  36.3077 0.512037 0.134198
RightFoot  -5.70756 0.58173 -12.5467
RightToes  0.00048216 0.542163 -0.142577
Spine  62.3996 -5.52012 10.0516
Spine1  5.28449 1.46871 -5.24677
HEad  -43.3856 -3.55244 -1.40853
LeftShoulder1  10.5604 -27.3271 -27.9286
LeftArm  -48.1469 -62.9141 -16.7401
LeftForeArm  4.56789 -26.1369 -5.37108
LeftHand  -0.25398 0.0180481 5.50724
RightShoulder  3.64962 13.8625 14.1388
RightArm  -51.8064 57.3225 -1.77073
RightForeArm  -9.48581 29.4056 6.88616
RightHand  0.29461 4.29478 3.17553
LeftUpLeg  -88.2748 36.4686 -45.0956
LeftLeg  29.8825 -10.4971 -6.12455
LeftFoot  3.25719 -0.313058 2.28348
LeftToes  1.06248e-005 4.65856e-005 -8.18499e-006
76
root  -61.0297 37.7398 -19.3595 36.163 -4.05498 0.491562
RightUpLeg  -77.3038 -29.1215 35.5702
RightLeg  33.0281 1.11949 0.526108
RightFoot  -4.07221 0.73775 -11.9877
RightToes  0.00048216 0.542163 -0.142577
Spine  61.4159 -5.43752 10.591
Spine1  5.17249 2.0176 -5.91109
HEad  -42.4646 -4.74849 -1.40028
LeftShoulder1  10.9374 -28.3339 -28.0018
LeftArm  -44.0205 -60.5176 -21.171
LeftForeArm  3.45294 -27.4249 -5.72732
LeftHand  -0.25398 0.0180481 5.50724
RightShoulder  4.15498 13.5932 17.709
RightArm  -49.1433 57.015 -1.67648
RightForeArm  -11.4997 30.2093 7.19134
RightHand  0.292063 3.02812 3.74169
LeftUpLeg  -85.0539 37.6027 -44.3954
LeftLeg  26.4927 -10.8971 -5.52585
LeftFoot  5.04773 -0.461803 3.00012
LeftToes  1.06248e-005 4.65856e-005 -8.18499e-006
77
root  -60.8416 38.1736 -19.4167 34.1467 -3.90308 0.149017
RightUpLeg  -73.8356 -30.9175 35.2432
RightLeg  29.6205 2.0512 1.01722
RightFoot  -2.40585 0.89313 -11.5838
RightToes  0.00048216 0.542163 -0.142577
Spine  60.5049 -5.43647 10.8786
Spine1  5.01822 2.20643 -6.19508
HEad  -41.6419 -5.63476 -0.963187
LeftShoulder1  11.0544 -28.3101 -28.4052
LeftArm  -40.5661 -58.6009 -24.8607
LeftForeArm  2.59638 -28.0481 -5.9205
LeftHand  -0.25398 0.0180481 5.50724
RightShoulder  4.53409 13.8559 19.6731
RightArm  -45.5319 56.1569 0.349754
RightForeArm  -14.0834 30.4116 7.37045
RightHand  0.262432 2.26024 3.75644
LeftUpLeg  -80.8824 38.778 -42.4857
LeftLeg  22.9819 -10.9862 -4.70958
LeftFoot  6.68077 -0.521269 3.03345
LeftToes  1.06248e-005 4.65856e-005 -8.18499e-006
78
root  -60.6545 38.5839 -19.4524 31.8952 -3.68449 -0.272552
RightUpLeg  -70.1305 -32.9729 34.937
RightLeg  26.2265 3.06428 1.40085
RightFoot  -0.79962 1.03894 -11.2708
RightToes  0.00048216 0.542163 -0.142577
Spine  59.6465 -5.45184 11.1264
Spine1  4.54824 2.37835 -6.6384
HEad  -39.7702 -6.09341 -1.51265
LeftShoulder1  11.0011 -28.0149 -28.5682
LeftArm  -36.9564 -56.5218 -28.8074
LeftForeArm  2.51789 -28.3353 -5.99326
LeftHand  -0.25398 0.0180481 5.50724
RightShoulder  4.91486 14.0226 21.7264
RightArm  -40.6359 55.0434 2.93582
RightForeArm  -17.2952 30.0422 7.42715
RightHand  0.218839 1.92764 3.27749
LeftUpLeg  -75.7297 39.8074 -39.2598
LeftLeg  19.5017 -10.3023 -3.82391
LeftFoot  7.98121 -0.605891 3.2684
LeftToes  1.06248e-005 4.65856e-005 -8.18499e-006
